<svg width="396" height="741" viewBox="0 0 396 741" fill="none" xmlns="http://www.w3.org/2000/svg">
<g filter="url(#filter0_d_5_1386)">
<path d="M38 61C38 34.4903 59.4903 13 86 13H310C336.51 13 358 34.4903 358 61V629.57C358 656.08 336.51 677.57 310 677.57H86C59.4903 677.57 38 656.08 38 629.57V61Z" fill="#111111" shape-rendering="crispEdges"/>
<path d="M354 109C356.209 109 358 110.791 358 113V153C358 155.209 356.209 157 354 157V109Z" fill="#111111"/>
<path d="M354 173C356.209 173 358 174.791 358 177V233C358 235.209 356.209 237 354 237V173Z" fill="#111111"/>
<path d="M38 129C38 126.791 39.7909 125 42 125V189C39.7909 189 38 187.209 38 185V129Z" fill="#111111"/>
<path d="M134 13H262C262 26.2548 251.255 37 238 37H158C144.745 37 134 26.2548 134 13Z" fill="#111111"/>
</g>
<defs>
<filter id="filter0_d_5_1386" x="0" y="0" width="396" height="740.57" filterUnits="userSpaceOnUse" color-interpolation-filters="sRGB">
<feFlood flood-opacity="0" result="BackgroundImageFix"/>
<feColorMatrix in="SourceAlpha" type="matrix" values="0 0 0 0 0 0 0 0 0 0 0 0 0 0 0 0 0 0 127 0" result="hardAlpha"/>
<feMorphology radius="12" operator="erode" in="SourceAlpha" result="effect1_dropShadow_5_1386"/>
<feOffset dy="25"/>
<feGaussianBlur stdDeviation="25"/>
<feComposite in2="hardAlpha" operator="out"/>
<feColorMatrix type="matrix" values="0 0 0 0 0 0 0 0 0 0 0 0 0 0 0 0 0 0 0.25 0"/>
<feBlend mode="normal" in2="BackgroundImageFix" result="effect1_dropShadow_5_1386"/>
<feBlend mode="normal" in="SourceGraphic" in2="effect1_dropShadow_5_1386" result="shape"/>
</filter>
</defs>
</svg>
