<svg width="40" height="40" viewBox="0 0 40 40" fill="none" xmlns="http://www.w3.org/2000/svg">
<path d="M33.3334 16.6667C33.3334 24.9884 24.1017 33.655 21.0017 36.3317C20.713 36.5489 20.3614 36.6663 20.0001 36.6663C19.6388 36.6663 19.2872 36.5489 18.9984 36.3317C15.8984 33.655 6.66675 24.9884 6.66675 16.6667C6.66675 13.1305 8.07151 9.7391 10.572 7.23862C13.0725 4.73813 16.4639 3.33337 20.0001 3.33337C23.5363 3.33337 26.9277 4.73813 29.4282 7.23862C31.9287 9.7391 33.3334 13.1305 33.3334 16.6667Z" stroke="white" stroke-width="3.33333" stroke-linecap="round" stroke-linejoin="round"/>
<path d="M20 21.6666C22.7614 21.6666 25 19.428 25 16.6666C25 13.9052 22.7614 11.6666 20 11.6666C17.2386 11.6666 15 13.9052 15 16.6666C15 19.428 17.2386 21.6666 20 21.6666Z" stroke="white" stroke-width="3.33333" stroke-linecap="round" stroke-linejoin="round"/>
</svg>
