<svg width="40" height="40" viewBox="0 0 40 40" fill="none" xmlns="http://www.w3.org/2000/svg">
<path d="M25.8333 12.5L29.6666 16.3333C29.9781 16.6387 30.397 16.8097 30.8333 16.8097C31.2695 16.8097 31.6884 16.6387 31.9999 16.3333L35.4999 12.8333C35.8053 12.5217 35.9763 12.1029 35.9763 11.6666C35.9763 11.2304 35.8053 10.8115 35.4999 10.5L31.6666 6.66663" stroke="white" stroke-width="3.33333" stroke-linecap="round" stroke-linejoin="round"/>
<path d="M35 3.33337L19 19.3334" stroke="white" stroke-width="3.33333" stroke-linecap="round" stroke-linejoin="round"/>
<path d="M12.4999 35C17.5625 35 21.6666 30.8959 21.6666 25.8333C21.6666 20.7707 17.5625 16.6666 12.4999 16.6666C7.43731 16.6666 3.33325 20.7707 3.33325 25.8333C3.33325 30.8959 7.43731 35 12.4999 35Z" stroke="white" stroke-width="3.33333" stroke-linecap="round" stroke-linejoin="round"/>
</svg>
