<svg width="40" height="40" viewBox="0 0 40 40" fill="none" xmlns="http://www.w3.org/2000/svg">
<path d="M31.6666 28.3333H34.9999C35.9999 28.3333 36.6666 27.6666 36.6666 26.6666V21.6666C36.6666 20.1666 35.4999 18.8333 34.1666 18.5C31.1666 17.6666 26.6666 16.6666 26.6666 16.6666C26.6666 16.6666 24.4999 14.3333 22.9999 12.8333C22.1666 12.1666 21.1666 11.6666 19.9999 11.6666H8.33325C7.33325 11.6666 6.49992 12.3333 5.99992 13.1666L3.66659 18C3.44589 18.6437 3.33325 19.3195 3.33325 20V26.6666C3.33325 27.6666 3.99992 28.3333 4.99992 28.3333H8.33325" stroke="white" stroke-width="3.33333" stroke-linecap="round" stroke-linejoin="round"/>
<path d="M11.6666 31.6667C13.5075 31.6667 14.9999 30.1743 14.9999 28.3333C14.9999 26.4924 13.5075 25 11.6666 25C9.82564 25 8.33325 26.4924 8.33325 28.3333C8.33325 30.1743 9.82564 31.6667 11.6666 31.6667Z" stroke="white" stroke-width="3.33333" stroke-linecap="round" stroke-linejoin="round"/>
<path d="M15 28.3334H25" stroke="white" stroke-width="3.33333" stroke-linecap="round" stroke-linejoin="round"/>
<path d="M28.3333 31.6667C30.1743 31.6667 31.6667 30.1743 31.6667 28.3333C31.6667 26.4924 30.1743 25 28.3333 25C26.4924 25 25 26.4924 25 28.3333C25 30.1743 26.4924 31.6667 28.3333 31.6667Z" stroke="white" stroke-width="3.33333" stroke-linecap="round" stroke-linejoin="round"/>
</svg>
