<svg width="40" height="40" viewBox="0 0 40 40" fill="none" xmlns="http://www.w3.org/2000/svg">
<path d="M5 23.3333H10C10.8841 23.3333 11.7319 23.6845 12.357 24.3096C12.9821 24.9348 13.3333 25.7826 13.3333 26.6667V31.6667C13.3333 32.5507 12.9821 33.3986 12.357 34.0237C11.7319 34.6488 10.8841 35 10 35H8.33333C7.44928 35 6.60143 34.6488 5.97631 34.0237C5.35119 33.3986 5 32.5507 5 31.6667V20C5 16.0218 6.58035 12.2064 9.3934 9.3934C12.2064 6.58035 16.0218 5 20 5C23.9782 5 27.7936 6.58035 30.6066 9.3934C33.4196 12.2064 35 16.0218 35 20V31.6667C35 32.5507 34.6488 33.3986 34.0237 34.0237C33.3986 34.6488 32.5507 35 31.6667 35H30C29.1159 35 28.2681 34.6488 27.643 34.0237C27.0179 33.3986 26.6667 32.5507 26.6667 31.6667V26.6667C26.6667 25.7826 27.0179 24.9348 27.643 24.3096C28.2681 23.6845 29.1159 23.3333 30 23.3333H35" stroke="white" stroke-width="3.33333" stroke-linecap="round" stroke-linejoin="round"/>
</svg>
