<svg width="40" height="40" viewBox="0 0 40 40" fill="none" xmlns="http://www.w3.org/2000/svg">
<path d="M23.3333 30V9.99996C23.3333 9.1159 22.9821 8.26806 22.3569 7.64294C21.7318 7.01782 20.884 6.66663 19.9999 6.66663H6.66659C5.78253 6.66663 4.93468 7.01782 4.30956 7.64294C3.68444 8.26806 3.33325 9.1159 3.33325 9.99996V28.3333C3.33325 28.7753 3.50885 29.1992 3.82141 29.5118C4.13397 29.8244 4.55789 30 4.99992 30H8.33325" stroke="white" stroke-width="3.33333" stroke-linecap="round" stroke-linejoin="round"/>
<path d="M25 30H15" stroke="white" stroke-width="3.33333" stroke-linecap="round" stroke-linejoin="round"/>
<path d="M31.6666 30H34.9999C35.4419 30 35.8659 29.8244 36.1784 29.5119C36.491 29.1993 36.6666 28.7754 36.6666 28.3334V22.25C36.6659 21.8718 36.5366 21.5051 36.2999 21.21L30.4999 13.96C30.344 13.7648 30.1463 13.6072 29.9213 13.4987C29.6962 13.3902 29.4497 13.3337 29.1999 13.3334H23.3333" stroke="white" stroke-width="3.33333" stroke-linecap="round" stroke-linejoin="round"/>
<path d="M28.3333 33.3333C30.1743 33.3333 31.6667 31.8409 31.6667 30C31.6667 28.159 30.1743 26.6666 28.3333 26.6666C26.4924 26.6666 25 28.159 25 30C25 31.8409 26.4924 33.3333 28.3333 33.3333Z" stroke="white" stroke-width="3.33333" stroke-linecap="round" stroke-linejoin="round"/>
<path d="M11.6666 33.3333C13.5075 33.3333 14.9999 31.8409 14.9999 30C14.9999 28.159 13.5075 26.6666 11.6666 26.6666C9.82564 26.6666 8.33325 28.159 8.33325 30C8.33325 31.8409 9.82564 33.3333 11.6666 33.3333Z" stroke="white" stroke-width="3.33333" stroke-linecap="round" stroke-linejoin="round"/>
</svg>
