<svg width="19" height="17" viewBox="0 0 19 17" fill="none" xmlns="http://www.w3.org/2000/svg">
<path d="M8.77225 1.07924C8.80877 1.00546 8.86519 0.943351 8.93513 0.899928C9.00507 0.856506 9.08576 0.833496 9.16809 0.833496C9.25041 0.833496 9.3311 0.856506 9.40104 0.899928C9.47098 0.943351 9.5274 1.00546 9.56392 1.07924L11.4889 4.97841C11.6157 5.23505 11.8029 5.45708 12.0344 5.62545C12.2659 5.79382 12.5349 5.9035 12.8181 5.94507L17.1231 6.57507C17.2047 6.58689 17.2813 6.6213 17.3443 6.67441C17.4074 6.72751 17.4543 6.7972 17.4798 6.87558C17.5053 6.95396 17.5083 7.03791 17.4886 7.11794C17.4688 7.19796 17.4271 7.27087 17.3681 7.32841L14.2548 10.3601C14.0494 10.5602 13.8958 10.8071 13.8071 11.0798C13.7184 11.3524 13.6973 11.6425 13.7456 11.9251L14.4806 16.2084C14.495 16.2899 14.4862 16.3739 14.4552 16.4506C14.4242 16.5274 14.3722 16.5939 14.3052 16.6426C14.2382 16.6912 14.1589 16.7201 14.0763 16.7258C13.9937 16.7316 13.9112 16.714 13.8381 16.6751L9.98975 14.6517C9.73618 14.5186 9.45407 14.449 9.16767 14.449C8.88127 14.449 8.59915 14.5186 8.34558 14.6517L4.49809 16.6751C4.42503 16.7137 4.34258 16.7311 4.26013 16.7253C4.17767 16.7194 4.09852 16.6905 4.03166 16.6419C3.96481 16.5933 3.91295 16.5269 3.88197 16.4503C3.85098 16.3736 3.84213 16.2898 3.85642 16.2084L4.59058 11.9259C4.63908 11.6432 4.61807 11.3529 4.52937 11.0801C4.44066 10.8073 4.28693 10.5602 4.08142 10.3601L0.968085 7.32924C0.90858 7.27177 0.866413 7.19874 0.846387 7.11847C0.826361 7.0382 0.829282 6.95392 0.854817 6.87523C0.880352 6.79654 0.927474 6.72661 0.990816 6.67339C1.05416 6.62018 1.13117 6.58582 1.21308 6.57424L5.51725 5.94507C5.8008 5.90382 6.07008 5.79429 6.30191 5.6259C6.53373 5.4575 6.72117 5.2353 6.84808 4.97841L8.77225 1.07924Z" fill="#4CA663" stroke="#4CA663" stroke-width="1.66667" stroke-linecap="round" stroke-linejoin="round"/>
</svg>
