<svg width="32" height="32" viewBox="0 0 32 32" fill="none" xmlns="http://www.w3.org/2000/svg">
<path d="M16.0001 27.9203C18.0001 27.9203 19.6667 29.3336 21.3334 29.3336C25.3334 29.3336 29.3334 18.6669 29.3334 13.0403C29.288 11.3132 28.5617 9.67416 27.3129 8.48033C26.0641 7.28649 24.3941 6.63466 22.6667 6.66693C19.7067 6.66693 17.3334 8.58693 16.0001 9.3336C14.6667 8.58693 12.2934 6.66693 9.33341 6.66693C7.60508 6.63114 5.93301 7.28179 4.68345 8.47637C3.4339 9.67095 2.70871 11.3121 2.66675 13.0403C2.66675 18.6669 6.66675 29.3336 10.6667 29.3336C12.3334 29.3336 14.0001 27.9203 16.0001 27.9203Z" stroke="white" stroke-width="2.66667" stroke-linecap="round" stroke-linejoin="round"/>
<path d="M13.3333 2.6665C14.6666 3.33317 15.9999 5.33317 15.9999 9.33317" stroke="white" stroke-width="2.66667" stroke-linecap="round" stroke-linejoin="round"/>
</svg>
