<svg width="24" height="24" viewBox="0 0 24 24" fill="none" xmlns="http://www.w3.org/2000/svg">
<path fill-rule="evenodd" clip-rule="evenodd" d="M7.52038 4.14622C8.29229 4.08459 9.02507 3.78098 9.61438 3.27862C10.28 2.71173 11.1257 2.40039 12 2.40039C12.8743 2.40039 13.72 2.71173 14.3856 3.27862C14.9749 3.78098 15.7077 4.08459 16.4796 4.14622C17.3513 4.21589 18.1697 4.59378 18.7881 5.21214C19.4064 5.8305 19.7843 6.6489 19.854 7.52062C19.9152 8.29222 20.2188 9.02542 20.7216 9.61462C21.2885 10.2802 21.5998 11.1259 21.5998 12.0002C21.5998 12.8745 21.2885 13.7202 20.7216 14.3858C20.2192 14.9751 19.9156 15.7079 19.854 16.4798C19.7843 17.3515 19.4064 18.1699 18.7881 18.7883C18.1697 19.4067 17.3513 19.7846 16.4796 19.8542C15.7077 19.9159 14.9749 20.2195 14.3856 20.7218C13.72 21.2887 12.8743 21.6001 12 21.6001C11.1257 21.6001 10.28 21.2887 9.61438 20.7218C9.02507 20.2195 8.29229 19.9159 7.52038 19.8542C6.64866 19.7846 5.83026 19.4067 5.2119 18.7883C4.59353 18.1699 4.21565 17.3515 4.14598 16.4798C4.08435 15.7079 3.78074 14.9751 3.27838 14.3858C2.71149 13.7202 2.40015 12.8745 2.40015 12.0002C2.40015 11.1259 2.71149 10.2802 3.27838 9.61462C3.78074 9.02532 4.08435 8.29253 4.14598 7.52062C4.21565 6.6489 4.59353 5.8305 5.2119 5.21214C5.83026 4.59378 6.64866 4.21589 7.52038 4.14622ZM16.4484 10.4486C16.667 10.2223 16.7879 9.91918 16.7852 9.60454C16.7825 9.28991 16.6563 8.98893 16.4338 8.76644C16.2113 8.54395 15.9103 8.41775 15.5957 8.41501C15.281 8.41228 14.9779 8.53323 14.7516 8.75182L10.8 12.7034L9.24838 11.1518C9.02206 10.9332 8.71893 10.8123 8.4043 10.815C8.08966 10.8177 7.78869 10.944 7.5662 11.1664C7.34371 11.3889 7.2175 11.6899 7.21477 12.0045C7.21203 12.3192 7.33299 12.6223 7.55158 12.8486L9.95158 15.2486C10.1766 15.4736 10.4818 15.6 10.8 15.6C11.1182 15.6 11.4233 15.4736 11.6484 15.2486L16.4484 10.4486Z" fill="white"/>
</svg>
