<svg width="96" height="48" viewBox="0 0 96 48" fill="none" xmlns="http://www.w3.org/2000/svg">
<g clip-path="url(#clip0_5_1650)">
<mask id="mask0_5_1650" style="mask-type:luminance" maskUnits="userSpaceOnUse" x="0" y="0" width="96" height="48">
<path d="M96 0H0V48H96V0Z" fill="white"/>
</mask>
<g mask="url(#mask0_5_1650)">
<path d="M52.2645 19.6242H46.5667H26.1748V28.4251H42.3344C41.2403 31.7672 38.9307 34.671 35.7849 36.6596C32.6392 38.6482 28.8444 39.6034 25.0238 39.3683C21.2032 39.1332 17.5839 37.7217 14.7606 35.3657C11.9372 33.0097 10.0776 29.8492 9.48725 26.4035C8.89684 22.9578 9.61073 19.4316 11.5117 16.4043C13.4126 13.3768 16.3876 11.0283 19.948 9.74417C23.5082 8.46016 27.4423 8.31701 31.1037 9.33823C34.7652 10.3595 37.9364 12.4845 40.0965 15.3641H50.9406C48.5016 9.60429 43.7191 4.92198 37.5876 2.29022C31.4559 -0.341545 24.4465 -0.720324 18.0161 1.23261C11.5858 3.18553 6.229 7.31996 3.0591 12.7767C-0.110789 18.2333 -0.850001 24.5925 0.995105 30.5327C2.84021 36.4729 7.12771 41.5371 12.9666 44.673C18.8054 47.8088 25.7464 48.775 32.3473 47.3708C38.9481 45.9666 44.7009 42.3 48.4102 37.133C52.1194 31.9659 53.4999 25.6959 52.2645 19.6261V19.6242Z" fill="#4CA663"/>
<path d="M69.5332 2.39482e-06C66.0586 -0.00140702 62.6178 0.619303 59.4082 1.82653C56.1986 3.03376 53.2834 4.80375 50.8297 7.03502C52.5687 9.12969 53.9777 11.4337 55.0163 13.8807L55.6556 15.3813C57.6875 12.6899 60.6166 10.6598 64.0136 9.58843C67.4106 8.51718 71.0966 8.46113 74.5312 9.42857C77.9659 10.3959 80.9684 12.3359 83.0987 14.964C85.2289 17.5921 86.3748 20.77 86.3682 24.0318C86.3616 27.2937 85.2031 30.4677 83.0623 33.0888C80.9215 35.7099 77.9112 37.6399 74.4726 38.5959C71.0341 39.5519 67.3484 39.4837 63.9557 38.4012C60.5631 37.3187 57.6421 35.2789 55.621 32.5809C54.5555 35.6021 52.9334 38.438 50.8235 40.9678C53.9004 43.7593 57.6888 45.8194 61.8533 46.9657C66.0178 48.1119 70.4298 48.309 74.6983 47.5393C78.9667 46.7696 82.9601 45.0568 86.3244 42.5529C89.6887 40.0491 92.3201 36.8313 93.9857 33.1846C95.6508 29.5379 96.2992 25.575 95.8729 21.6469C95.4456 17.7189 93.9573 13.9468 91.5392 10.6651C89.1211 7.38332 85.8478 4.69314 82.0094 2.83288C78.171 0.972626 73.8853 -0.000610252 69.5332 2.39482e-06Z" fill="white"/>
</g>
</g>
<defs>
<clipPath id="clip0_5_1650">
<rect width="96" height="48" fill="white"/>
</clipPath>
</defs>
</svg>
